<svg xmlns="http://www.w3.org/2000/svg" xml:space="preserve" viewBox="0 0 709 709">
  <path fill="#b6badd" fill-rule="evenodd" d="m183.4 453 171.1-122 171 122 176.2 78.8v-52.7L404.9 259.4V122c0-49.7-29.4-100.2-50.4-121.7-21 21.5-50.4 72-50.4 121.7v137.4L7.3 479v52.7L183.4 453z" clip-rule="evenodd"/>
  <path fill="#0065ad" fill-rule="evenodd" d="M354.5 339.7c108.6 0 196.7 50.7 196.7 113.3 0 62.5-88 113.2-196.7 113.2-108.6 0-196.7-50.7-196.7-113.2 0-62.6 88-113.3 196.7-113.3z" clip-rule="evenodd"/>
  <path fill="#fff" fill-rule="evenodd" d="M495.3 374.2c-35.9-21.3-85.6-34.5-140.8-34.5-55.2 0-105 13.2-140.8 34.5-34.6 20.5-56 48.4-56 78.8s21.4 58.2 56 78.7c35.9 21.4 85.6 34.5 140.8 34.5 55.2 0 105-13.1 140.8-34.5 34.6-20.5 56-48.3 56-78.7 0-30.4-21.4-58.3-56-78.8zM354.5 331C468 331 560 385.6 560 453s-92 122-205.5 122S149 520.4 149 453s92-122 205.5-122z" clip-rule="evenodd"/>
  <path fill="#fff" fill-rule="evenodd" d="M486.8 388.6a308.3 308.3 0 0 1-132.3 28c-50 0-96.1-10.5-132.3-28 4-3 8.4-5.8 13-8.4a300.3 300.3 0 0 0 119.3 23.2c44.7 0 86-8.6 119.3-23.2 4.6 2.6 9 5.4 13 8.4z" clip-rule="evenodd"/>
  <path fill="#fff" fill-rule="evenodd" d="m354.5 351.4 8.8.1v92.7h161.6a61 61 0 0 1 0 17.6H363.3v92.7a287.4 287.4 0 0 1-17.6 0v-92.7H184.1a61.5 61.5 0 0 1 0-17.6h161.6v-92.7l8.8-.1z" clip-rule="evenodd"/>
  <path fill="#fff" fill-rule="evenodd" d="M486.8 517.4a308.3 308.3 0 0 0-132.3-28c-50 0-96.1 10.5-132.3 28 4 3 8.4 5.7 13 8.4a300.4 300.4 0 0 1 119.3-23.2c44.7 0 86 8.6 119.3 23.2 4.6-2.7 9-5.5 13-8.4z" clip-rule="evenodd"/>
  <path fill="#0065ad" fill-rule="evenodd" d="M36.3 676.5 28 650.8l-8.4 25.7h16.7zm10.7-40 23 71H46.5l-7.1-22H16.7l-7.2 22H0l23-71h24zm142.2 8.2V669c9.6 0 21.3-.2 21.3-12.2s-11.7-12.2-21.3-12.1zm-22.5-8.3h44.9c9.8 0 17.8 8.5 17.8 19 0 10-7.3 18.2-16.6 18.9l17.8 33.2H206l-16.8-30.8v30.8h-22.5v-71zm210.3 0h25.5v9.1H377v22h25.5v9H377v31h-22.5v-71H377zm96 0h11.2v49.8c0 12-12.7 21.6-28.3 21.6-15.7 0-28.4-9.7-28.4-21.6v-49.8H450v49.8a11.5 11.5 0 0 0 23 0v-49.8zm64.3 62h25.5v9h-48v-71h48v9.1h-25.5v22h25.5v9h-25.5v21.9zm75.4 0h25.5v9h-48v-71h22.5v62zm94.5-46.6-9.5 2.3-.7-2c-1-2.4-2.4-4.5-4.6-6-2-1.4-4.2-2.1-6.6-2.1-2.3 0-4.2.7-5.9 2.3-2 2-2.7 4.8-2.7 7.7 0 4.4 3.3 7 7 8.9l15.5 7A19 19 0 0 1 709 687c0 6.8-2.7 12.4-8.2 16.5a29 29 0 0 1-17.5 5.2c-10.8 0-17.5-3.3-23-12.7l-1.2-1.9 7.6-5 1.3 2c3.5 5.2 5.7 8.4 12.5 8.4a11 11 0 0 0 7.2-2.4c2-1.6 2.8-3.9 2.8-6.4v-1c0-4.4-3-7-6.6-8.8-5-2.1-9.8-4.3-15-6.7-6-3.8-9-9.5-9-16.6 0-7 2.2-13 7.5-17.5 4.6-4 10.2-5.6 16.2-5.6 5 0 9.7 1.2 14 3.8 4.3 2.6 7.3 6.3 8.8 11.1l.8 2.4zM307 671.6c0 16.4-7.7 28.3-17.2 28.3-9.6 0-17.3-11.9-17.3-28.3 0-16.5 7.7-28.4 17.3-28.4 9.5 0 17.2 12 17.2 28.4zm-17.2 36.2a35.3 35.3 0 0 0 36.2-36.2c0-20-14.7-36.2-36.2-36.2a35.3 35.3 0 0 0-36.2 36.2c0 20 14.7 36.2 36.2 36.2zM93.4 636.4h48v9.1h-25.5v22h25.5v9h-25.5v21.9h25.5v9h-48v-71z" clip-rule="evenodd"/>
</svg>
