<?xml version="1.0" encoding="utf-8"?>
<!-- Generator: Adobe Illustrator 28.0.0, SVG Export Plug-In . SVG Version: 6.00 Build 0)  -->
<svg version="1.1" id="Слой_1" xmlns="http://www.w3.org/2000/svg" xmlns:xlink="http://www.w3.org/1999/xlink" x="0px" y="0px"
	 viewBox="0 0 1000 475.4" style="enable-background:new 0 0 1000 475.4;" xml:space="preserve">
<style type="text/css">
	.st0{fill-rule:evenodd;clip-rule:evenodd;fill:#0079C2;}
</style>
<path class="st0" d="M819.1,289.3c4,0,7.1-2.8,7.1-6.5V170.4c-0.6-3.1-3.4-5.7-7.1-5.7s-6.5,2.6-7.1,5.7v112.4
	C811.9,286.5,815.1,289.3,819.1,289.3z M832.1,143.9c22.5,0,23.9,17.9,23.9,29.6v106.7c0,11.7-1.4,29.6-23.9,29.6h-26.5
	c-22.5,0-23.9-17.9-23.9-29.6V173.5c0-11.7,1.4-29.6,23.9-29.6H832.1z M333.1,143.9h61.2v20.5h-29v145.4h-32.1V143.9z M415.6,143.9
	H466l16.8,165.9h-31.3l-2.8-44.1h-15.1l-2.8,44.1h-31.3L415.6,143.9z M446.9,247.5l-5.4-83.1h-1.7l-5.4,83.1H446.9z M528.3,251.8
	v31.3c0,4.3,3.1,5.4,4.8,5.4c2.8,0,4.8-2.6,4.8-5.4v-38.7c0-5.1-0.9-10.8-12.8-10.8h-12.8v-18.2h13.4c9.1,0,12.5-2.3,12.5-12.2v-33
	c0-2.8-2-5.4-4.8-5.4c-2,0-4.8,1.1-4.8,5.4v27h-32.1v-23.6c0-11.7,1.4-29.6,23.9-29.6h26.5c22.5,0,23.9,17.9,23.9,29.6v26.7
	c0,17.9-12.2,22.8-21.9,22.5v1.7c21.3-0.6,21.9,16.5,21.9,22.5v33.3c0,11.7-1.4,29.6-23.9,29.6h-26.5c-22.2,0-23.9-17.9-23.9-29.6
	v-28.4H528.3z M591.5,143.9h74v165.9h-29.9V164.4h-14.5v145.4h-29.9V143.9H591.5z M688.8,143.9h50.4c22.5,0,25.9,17.9,25.9,29.6
	v50.1c0,11.7-3.4,29.6-25.9,29.6h-18.2v56.3h-32.1V143.9z M729.2,235c3.4,0,6-3.1,6-8.2v-54.1c0-5.1-2.6-8.3-6-8.3h-8.5V235H729.2z
	 M957.9,143.9h41.5v165.9h-31.9V205.7h-1.1l-16.5,104.1h-25.6l-16.5-104.1h-1.1v104.1h-32.1V143.9h41.8l20.8,116.6L957.9,143.9z
	 M264.9,160.7c0.3-16.8-1.4-45.2-9.4-75.1c-8.3-29.9-24.2-58.3-26.7-61.7c-2.3,3.7-15.1,26.7-26.2,62.6c-2.8,10.8-8.3,34.1-9.1,57.2
	c-1.1,27.6,2.6,55.2,4.3,62.9c0-9.1,0.3-39.8,6-65.1c5.7-25.3,16.5-54.3,25.3-69.1c9.4,15.6,21.6,49.2,25.9,69.4
	c4.3,20.2,6.5,45.8,5.4,64C262.6,195.2,264.6,177.2,264.9,160.7z M228.7,289.3c5.1-9.4,13.9-30.4,13.4-56.9
	c-1.1-27-10.2-46.9-13.1-51.5c-3.1,4.8-13.9,27.6-13.7,54.1C216.2,262.3,223.9,279.9,228.7,289.3z M268,85.9
	c10,44.1,10,71.1,5.4,102.1c-8,55.8-33.3,98.1-44.4,112.4c-7.4-9.7-19.1-29.6-26.7-47.8c0,0-14.5-35-18.5-69.4
	c-4-34.1-2.3-68.8,9.1-108.1C203.1,39.8,223.3,8.3,229,0C232.4,5.7,257.8,41.5,268,85.9z M288.8,309.5V423
	c-30.4,32.1-73.7,52.3-121.8,52.3c-92.2,0-167-74.3-167-165.6s74.8-165.6,167-165.6v124.3c-23.9,0-48.1,9.1-66.3,27.3
	c-4.3,4.3-8.3,8.8-11.4,13.9c-24.5,36.1-20.8,85.6,11.4,117.5c18.2,17.9,42.4,27.3,66.3,27.3c23.9,0,47.8-9.1,66-27
	c0,0,0.3,0,0.3-0.3l0.3-0.3c18.2-18.2,18.2-47.5,0-65.7c-18.2-18.2-48.1-18.2-66.3,0c0,0-0.3,0-0.3,0.3v-52.1H288.8z M970.1,428.7
	c0-14.5-6.3-18.2-22.8-18.2h-2.8v-27.9h-16.8v72h16.8c18.2,0,25.6-2.8,25.6-18.5V428.7z M829,382.6h-42.7v13.7H800v58.6h15.9v-58.6
	h12.8L829,382.6z M699,406.5c0-14.8-7.1-18.5-24.2-18.5v-5.4h-16.5v5.4c-17.1,0-24.2,3.7-24.2,18.5V429c0,14.5,7.4,18.5,24.2,18.5
	v7.1h16.5v-7.1c16.8,0,24.2-4,24.2-18.5V406.5z M545.9,382.6h-40.7v72.3h40.7v-13.7h-23v-17.1h20.8v-13.7h-20.8v-14.2h23V382.6z
	 M405.7,382.6h-16.8v27.9h-8.8v-27.9h-16.8v72h16.8V423h8.8v31.6h16.8V382.6z M1000,475.4H333.1V364.7h666.6L1000,475.4z M650.6,406
	c0-4.3,1.4-5.4,5.1-5.4h2.6v33.6h-2.6c-3.7,0-5.1-0.9-5.1-5.1V406z M948.2,423.3c3.7,0,4.8,0.9,4.8,5.1v8.8c0,4-1.1,5.1-4.8,5.1
	h-3.7v-18.8h3.7V423.3z M677.4,400.8c3.7,0,5.1,0.9,5.1,5.1v23.3c0,4.3-1.4,5.4-5.1,5.4h-2.6v-33.6h2.6V400.8z"/>
</svg>
