<svg xmlns="http://www.w3.org/2000/svg" viewBox="0 0 344.16 93.43"><defs><style>.cls-1{fill:#9ca2a3;}.cls-2{fill:#0e1e7d;}</style></defs><title>logoxhdpi</title><g id="Слой_2" data-name="Слой 2"><g id="Layer_1" data-name="Layer 1"><path class="cls-1" d="M30.2,42.94s78.09-7.56,150.64-8.3S331.67,40.73,337,41.28s27.1,2-46.61-.84c-74.23-2.88-121.57-3.4-166.8-1S34.09,44.73,21,45.9C-31.1,50.52,30.2,42.94,30.2,42.94Z"/><path class="cls-1" d="M86.81,12.19s15.72-3.94,22.58-5.34S130.31,3,123.07,10.3a155.33,155.33,0,0,0-13.69,16.29S175.91,14.12,211.89,6.87c31-6.24,72-12.24,65.16,1.28s-30,26.32-21.54,18.43c4.06-3.81,6.68-5.29,12.24-10.85,6.58-6.58,12-15.86-27.53-10S99.83,32.8,99.83,32.8s9.07-11.9,12.79-17.11,7.18-8.34-5.33-5.79-20.77,3.34-25.24,3.92S86.81,12.19,86.81,12.19Z"/><path class="cls-1" d="M87.23,21.34c-9.34.43-18,1.39-20.6,2.23s14.19-.56,19.72-.68S87.23,21.34,87.23,21.34Z"/><path class="cls-2" d="M59.42,54.86A7.5,7.5,0,0,1,62,50.38a7.09,7.09,0,0,1,4.77-1.81H80.71A5,5,0,0,1,84.3,49.9a4.71,4.71,0,0,1,1.39,3.54,6.09,6.09,0,0,1-.12,1.06L82,74.54A4.77,4.77,0,0,1,78.87,73a4.7,4.7,0,0,1-1.18-3.23,7.81,7.81,0,0,1,.08-1.07l1.88-10.43A3.91,3.91,0,0,0,78.94,55a3.56,3.56,0,0,0-3-1.35H68.87A5.09,5.09,0,0,0,64,57.77L62.06,68.38a7.49,7.49,0,0,1-2.18,4.06,7.2,7.2,0,0,1-4.08,2.1Z"/><path class="cls-2" d="M168.21,61.45l10.73,13.09h-3.78a7.18,7.18,0,0,1-5.91-2.61l-5.63-6.82a1.49,1.49,0,0,0-1.24-.53,1.7,1.7,0,0,0-1.82,1.55l-.45,2.19A8.06,8.06,0,0,1,158,72.45a6.78,6.78,0,0,1-4,2.09l3.5-19.74a7.77,7.77,0,0,1,2.1-4.12,6.91,6.91,0,0,1,4-2.11l-1.43,8.06c-.2,1.23.34,1.84,1.61,1.84A1.8,1.8,0,0,0,165,58l8-6.76a10.69,10.69,0,0,1,7-2.67h3.25Z"/><path class="cls-2" d="M216.93,54.48l-2.5,13.84a7.49,7.49,0,0,1-2.54,4.42,7,7,0,0,1-4.69,1.8H193.26a5,5,0,0,1-3.61-1.36,4.72,4.72,0,0,1-1.43-3.56,7.34,7.34,0,0,1,.12-1l2.44-13.81a7.55,7.55,0,0,1,2.57-4.38,7,7,0,0,1,4.72-1.85h14A4.68,4.68,0,0,1,217,53.48,7.81,7.81,0,0,1,216.93,54.48Zm-9.68-.75h-7.09A4.63,4.63,0,0,0,197,55a5.21,5.21,0,0,0-1.71,3L194,64.64a4,4,0,0,0,.71,3.32,3.49,3.49,0,0,0,3,1.42h7.11a4.58,4.58,0,0,0,3.19-1.3A5.29,5.29,0,0,0,209.73,65l1.18-6.58a4,4,0,0,0-.7-3.28A3.53,3.53,0,0,0,207.25,53.73Z"/><path class="cls-2" d="M134,52.15a8.16,8.16,0,0,1,6.76-3.2l8.36.18-4.36,26.09a4.5,4.5,0,0,1-3.05-1.58,5.35,5.35,0,0,1-1.27-3.28,4.16,4.16,0,0,1,0-1l2.78-12.94a2.45,2.45,0,0,0-.66-2,2.53,2.53,0,0,0-1.89-.87,2.72,2.72,0,0,0-2,.81l-10,13.08a6.34,6.34,0,0,1-5.22,2.44l-3.31-.07Z"/><path class="cls-2" d="M289.27,54.48l-2.49,13.84a7.56,7.56,0,0,1-2.55,4.42,7,7,0,0,1-4.69,1.8H265.61A5,5,0,0,1,262,73.18a4.71,4.71,0,0,1-1.42-3.56,7,7,0,0,1,.11-1l2.44-13.81a7.56,7.56,0,0,1,2.58-4.38,7,7,0,0,1,4.71-1.85h14a4.68,4.68,0,0,1,4.93,4.91A6.31,6.31,0,0,1,289.27,54.48Zm-9.68-.75H272.5A4.63,4.63,0,0,0,269.31,55a5.26,5.26,0,0,0-1.71,3l-1.22,6.57a4.08,4.08,0,0,0,.71,3.32,3.49,3.49,0,0,0,3,1.42h7.11a4.58,4.58,0,0,0,3.19-1.3A5.24,5.24,0,0,0,282.07,65l1.18-6.58a4,4,0,0,0-.7-3.28A3.52,3.52,0,0,0,279.59,53.73Z"/><path class="cls-2" d="M114.09,68.69a7.38,7.38,0,0,1-2.6,4.42,7.3,7.3,0,0,1-4.81,1.81H90.37a7.83,7.83,0,0,1,7.24-5.16H106a2.81,2.81,0,0,0,3.08-2.52,2.46,2.46,0,0,0-.53-2,2.38,2.38,0,0,0-1.9-.85h-12a5.37,5.37,0,0,1-3.61-1.22,4.18,4.18,0,0,1-1.43-3.36,7,7,0,0,1,.12-1l1.66-9.83a4.35,4.35,0,0,1,3,1.5,4.75,4.75,0,0,1,1.12,3.22,7.36,7.36,0,0,1-.12,1.13,4.29,4.29,0,0,0,.74,3.31,3.47,3.47,0,0,0,2.94,1.4h7.12a4.63,4.63,0,0,0,3.2-1.31,5.67,5.67,0,0,0,1.78-3.1A7.68,7.68,0,0,1,113.47,51a7.32,7.32,0,0,1,4.12-2.09Z"/><path class="cls-2" d="M253.11,53.71l-2.49,13.9A7.36,7.36,0,0,1,248,72a7.24,7.24,0,0,1-4.8,1.8H223.46l4.62-26h20a5.18,5.18,0,0,1,3.62,1.36,4.52,4.52,0,0,1,1.48,3.49A7,7,0,0,1,253.11,53.71Zm-9.91,9.5H232.94a2.83,2.83,0,0,0-3.08,2.55,2.51,2.51,0,0,0,.53,2,2.35,2.35,0,0,0,1.9.85h10.32a2.75,2.75,0,0,0,3-2.61,5,5,0,0,0,.06-.71Q245.69,63.21,243.2,63.21ZM245,53H232.23l-.59,2.87a2.22,2.22,0,0,0,2.49,2.53h10.26a2.81,2.81,0,0,0,3.08-2.53,2.45,2.45,0,0,0-.53-2A2.35,2.35,0,0,0,245,53Z"/><path class="cls-1" d="M84.85,87.49,83.39,90.4h-1.2L87,81.2h1.32l1.28,9.2H88.4L88,87.49Zm3.08-.9-.35-2.66c-.06-.47-.13-1.16-.17-1.69h0c-.25.55-.48,1.12-.75,1.68l-1.38,2.67Z"/><path class="cls-1" d="M91.9,86.65h3a1.06,1.06,0,0,0,0-.25A1.77,1.77,0,0,0,93,84.56a3.52,3.52,0,0,0-1.5.32l-.22-.82a4.39,4.39,0,0,1,1.84-.41,2.73,2.73,0,0,1,2.87,3,3.62,3.62,0,0,1-3.77,3.85,3.76,3.76,0,0,1-1.91-.48l.31-.83a3.78,3.78,0,0,0,1.6.39,2.46,2.46,0,0,0,2.54-2.18h-3Z"/><path class="cls-1" d="M96.27,93.1l1.32-7c.15-.8.29-1.69.37-2.36h1L98.82,85h0a2.92,2.92,0,0,1,2.37-1.39c1.42,0,2,1.17,2,2.38,0,2.34-1.67,4.52-3.86,4.52a2.88,2.88,0,0,1-1.42-.3h0L97.4,93.1Zm1.86-3.81a2,2,0,0,0,1.26.37c1.46,0,2.68-1.81,2.68-3.55,0-.69-.3-1.52-1.27-1.52s-2,1-2.33,2.86Z"/><path class="cls-1" d="M104.13,87.83a3.94,3.94,0,0,1,3.66-4.18,2.52,2.52,0,0,1,2.58,2.74c0,2-1.44,4.16-3.66,4.16A2.52,2.52,0,0,1,104.13,87.83Zm5.07-1.44c0-.77-.35-1.84-1.54-1.84-1.42,0-2.36,1.73-2.36,3.24,0,1.08.6,1.86,1.56,1.86C108.19,89.65,109.2,87.93,109.2,86.39Z"/><path class="cls-1" d="M111.17,90.4l.87-4.68c.14-.74.25-1.38.32-1.92h1l-.17,1.29h0a2.92,2.92,0,0,1,2.44-1.44,1.62,1.62,0,0,1,1.68,1.83,6.23,6.23,0,0,1-.13,1.06l-.73,3.86h-1.12l.72-3.82a5.68,5.68,0,0,0,.09-.85c0-.65-.26-1.14-1-1.14s-2,1-2.25,2.61l-.6,3.2Z"/><path class="cls-1" d="M118.52,87.83a4,4,0,0,1,3.66-4.18,2.52,2.52,0,0,1,2.59,2.74c0,2-1.44,4.16-3.67,4.16A2.52,2.52,0,0,1,118.52,87.83Zm5.08-1.44a1.63,1.63,0,0,0-1.54-1.84c-1.42,0-2.36,1.73-2.36,3.24,0,1.08.6,1.86,1.55,1.86C122.59,89.65,123.6,87.93,123.6,86.39Z"/><path class="cls-1" d="M125,93.1l1.33-7c.15-.8.28-1.69.37-2.36h1L127.51,85h0a2.93,2.93,0,0,1,2.38-1.39c1.41,0,2,1.17,2,2.38,0,2.34-1.67,4.52-3.87,4.52a2.86,2.86,0,0,1-1.41-.3h0l-.53,2.85Zm1.86-3.81a2,2,0,0,0,1.27.37c1.46,0,2.67-1.81,2.67-3.55,0-.69-.3-1.52-1.27-1.52s-2,1-2.33,2.86Z"/><path class="cls-1" d="M132.76,90.4l.87-4.68c.14-.74.23-1.38.3-1.92h1L134.76,85h0a2.77,2.77,0,0,1,2.32-1.39,1.44,1.44,0,0,1,1.54,1.47,2.81,2.81,0,0,1,2.41-1.47,1.57,1.57,0,0,1,1.61,1.73,6.71,6.71,0,0,1-.11,1.12l-.73,3.9h-1.11l.71-3.81a4,4,0,0,0,.09-.86c0-.69-.25-1.14-1-1.14s-1.8,1-2.07,2.43l-.63,3.38h-1.09l.73-3.87a4.09,4.09,0,0,0,.09-.81c0-.56-.15-1.13-1-1.13s-1.86,1.09-2.12,2.49l-.6,3.32Z"/><path class="cls-1" d="M152.65,90.1a6.1,6.1,0,0,1-2.39.43,3.48,3.48,0,0,1-3.72-3.8,5.72,5.72,0,0,1,2-4.43A5.23,5.23,0,0,1,152,81.07a3.91,3.91,0,0,1,2,.44l-.37.91a3.76,3.76,0,0,0-1.82-.37,4,4,0,0,0-2.63,1,4.84,4.84,0,0,0-1.4,3.5c0,1.64.75,3,2.79,3a4.65,4.65,0,0,0,2-.4Z"/><path class="cls-1" d="M158.09,90.4c0-.4.07-1,.15-1.71h0a2.89,2.89,0,0,1-2.57,1.86,2,2,0,0,1-1.89-2.18,4.6,4.6,0,0,1,4.56-4.72,6.61,6.61,0,0,1,1.78.24l-.67,3.45a15.48,15.48,0,0,0-.28,3.06Zm.73-5.76a2.65,2.65,0,0,0-.78-.09c-1.71,0-3.11,1.77-3.11,3.61,0,.74.26,1.46,1.13,1.46s2.06-1.23,2.39-3Z"/><path class="cls-1" d="M163.21,83.8l-.49,2.67h3l.51-2.67h1.13l-1.26,6.6H165l.57-3h-3l-.57,3h-1.13l1.25-6.6Z"/><path class="cls-1" d="M170.41,83.8l-.54,2.92h.24L173,83.8h1.36l-3.22,3c.71.2,1.12.81,1.45,1.86.23.68.38,1.32.57,1.72H172c-.18-.37-.32-1-.55-1.61-.38-1-.77-1.35-1.57-1.35h-.2l-.56,3h-1.11l1.26-6.6Z"/><path class="cls-1" d="M174.28,90.4l.87-4.68q.19-1.11.3-1.92h1L176.28,85h0a2.77,2.77,0,0,1,2.32-1.39,1.44,1.44,0,0,1,1.54,1.47,2.81,2.81,0,0,1,2.41-1.47,1.57,1.57,0,0,1,1.61,1.73,6.71,6.71,0,0,1-.11,1.12l-.73,3.9h-1.11l.71-3.81a4.82,4.82,0,0,0,.1-.86c0-.69-.26-1.14-1-1.14s-1.8,1-2.07,2.43l-.63,3.38h-1.09l.73-3.87a4.09,4.09,0,0,0,.09-.81c0-.56-.15-1.13-1-1.13s-1.86,1.09-2.12,2.49l-.6,3.32Z"/><path class="cls-1" d="M188.82,86.28l-.16.87h-3.27l.17-.87Z"/><path class="cls-1" d="M197.54,81.2l-1.75,9.2h-1.13l1.58-8.23h-4l-1.57,8.23h-1.13l1.74-9.2Z"/><path class="cls-1" d="M202.57,90a4.76,4.76,0,0,1-2.18.52,2.39,2.39,0,0,1-2.51-2.66c0-2,1.48-4.24,3.6-4.24a1.72,1.72,0,0,1,1.94,1.7c0,1.73-1.95,2.18-4.39,2.14a2.68,2.68,0,0,0,.13,1.26,1.48,1.48,0,0,0,1.47.88,3.7,3.7,0,0,0,1.78-.45Zm-1.25-5.5c-1.08,0-1.88,1-2.17,2.09,1.78,0,3.17-.22,3.17-1.26C202.32,84.83,201.92,84.53,201.32,84.53Z"/><path class="cls-1" d="M204,90.4l.87-4.68c.14-.74.23-1.38.3-1.92h1L206,85h0a2.78,2.78,0,0,1,2.32-1.39,1.44,1.44,0,0,1,1.54,1.47,2.83,2.83,0,0,1,2.41-1.47,1.57,1.57,0,0,1,1.61,1.73,6.71,6.71,0,0,1-.11,1.12l-.73,3.9H212l.71-3.81a4,4,0,0,0,.1-.86c0-.69-.26-1.14-1-1.14s-1.8,1-2.07,2.43l-.63,3.38H208l.74-3.87a4.92,4.92,0,0,0,.08-.81c0-.56-.15-1.13-1-1.13s-1.86,1.09-2.12,2.49l-.6,3.32Z"/><path class="cls-1" d="M219.78,90a4.76,4.76,0,0,1-2.18.52,2.39,2.39,0,0,1-2.51-2.66c0-2,1.47-4.24,3.6-4.24a1.71,1.71,0,0,1,1.93,1.7c0,1.73-2,2.18-4.39,2.14a2.7,2.7,0,0,0,.14,1.26,1.48,1.48,0,0,0,1.47.88,3.62,3.62,0,0,0,1.77-.45Zm-1.26-5.5c-1.07,0-1.88,1-2.17,2.09,1.79,0,3.18-.22,3.18-1.26C219.53,84.83,219.12,84.53,218.52,84.53Z"/><path class="cls-1" d="M220.61,93.1l1.33-7c.15-.8.28-1.69.37-2.36h1L223.16,85h0a2.92,2.92,0,0,1,2.37-1.39c1.42,0,2,1.17,2,2.38,0,2.34-1.66,4.52-3.86,4.52a2.83,2.83,0,0,1-1.41-.3h0l-.53,2.85Zm1.86-3.81a2,2,0,0,0,1.27.37c1.46,0,2.67-1.81,2.67-3.55,0-.69-.3-1.52-1.27-1.52s-2,1-2.33,2.86Z"/><path class="cls-1" d="M235.17,81.57a4.94,4.94,0,0,1-.94.22,4.68,4.68,0,0,0-3.35,1.48,5.12,5.12,0,0,0-.92,1.92h0a2.84,2.84,0,0,1,2.41-1.39,2.23,2.23,0,0,1,2.2,2.52c0,2-1.28,4.23-3.56,4.23-1.61,0-2.4-1.23-2.4-3.09a7.59,7.59,0,0,1,1.54-4.74,5.57,5.57,0,0,1,4-1.88,5.91,5.91,0,0,0,1.1-.26Zm-1.74,4.86c0-.93-.38-1.76-1.35-1.76a2.26,2.26,0,0,0-1.73,1.06,3.7,3.7,0,0,0-.57,2c0,1,.42,1.9,1.42,1.9C232.68,89.67,233.43,87.78,233.43,86.43Z"/><path class="cls-1" d="M236.74,83.8l.66,3.54c.14.77.25,1.27.32,1.77h0c.19-.43.41-.9.72-1.63l1.61-3.68h1.2c-.69,1.5-1.73,3.72-2.38,5a12.72,12.72,0,0,1-2.34,3.44,4.23,4.23,0,0,1-1.91,1.15l-.28-1a4,4,0,0,0,1.21-.62,5.08,5.08,0,0,0,1.28-1.53.35.35,0,0,0,0-.3l-1.34-6.19Z"/><path class="cls-1" d="M240.68,93.1l1.33-7c.15-.8.28-1.69.37-2.36h1L243.23,85h0a2.92,2.92,0,0,1,2.37-1.39c1.42,0,2,1.17,2,2.38,0,2.34-1.66,4.52-3.86,4.52a2.83,2.83,0,0,1-1.41-.3h0l-.53,2.85Zm1.86-3.81a2,2,0,0,0,1.27.37c1.45,0,2.67-1.81,2.67-3.55,0-.69-.3-1.52-1.27-1.52s-2,1-2.33,2.86Z"/><path class="cls-1" d="M249.43,84.11a3.6,3.6,0,0,1,1.73-.45c1.18,0,1.79.67,1.79,1.61,0,1.12-1,1.65-2,2.14-.81.38-1.48.75-1.48,1.42,0,.46.28.82,1,.83a3.39,3.39,0,0,0,1.58-.45l.18.82a4.11,4.11,0,0,1-2,.5c-1.17,0-1.91-.62-1.91-1.69s1-1.73,2-2.22c.69-.33,1.52-.67,1.52-1.32,0-.41-.28-.74-.9-.75a2.76,2.76,0,0,0-1.32.35Z"/><path class="cls-1" d="M257.86,90.4c0-.4.07-1,.15-1.71h0a2.87,2.87,0,0,1-2.56,1.86,2,2,0,0,1-1.9-2.18,4.6,4.6,0,0,1,4.57-4.72,6.53,6.53,0,0,1,1.77.24l-.66,3.45a15.48,15.48,0,0,0-.28,3.06Zm.72-5.76a2.55,2.55,0,0,0-.78-.09c-1.7,0-3.1,1.77-3.1,3.61,0,.74.26,1.46,1.13,1.46s2.06-1.23,2.38-3Z"/></g></g></svg>