<?xml version="1.0" encoding="UTF-8"?>
<!DOCTYPE svg PUBLIC "-//W3C//DTD SVG 1.1//EN" "http://www.w3.org/Graphics/SVG/1.1/DTD/svg11.dtd">
<!-- Creator: CorelDRAW X6 -->
<svg xmlns="http://www.w3.org/2000/svg" xml:space="preserve" width="1403px" height="161px" version="1.1" style="shape-rendering:geometricPrecision; text-rendering:geometricPrecision; image-rendering:optimizeQuality; fill-rule:evenodd; clip-rule:evenodd"
viewBox="0 0 1466 169"
 xmlns:xlink="http://www.w3.org/1999/xlink">
 <defs>
  <style type="text/css">
   <![CDATA[
    .fil1 {fill:#768C98;fill-rule:nonzero}
    .fil0 {fill:#F6911E;fill-rule:nonzero}
   ]]>
  </style>
 </defs>
 <g id="Layer_x0020_1">
  <metadata id="CorelCorpID_0Corel-Layer"/>
  <g id="_750939776">
   <path class="fil0" d="M23 118l42 -115c-46,11 -73,56 -63,101 11,44 57,73 101,63 25,-6 45,-22 57,-44 -50,19 -107,19 -137,-5z"/>
   <path class="fil0" d="M127 96c14,1 28,0 41,-6 0,-2 0,-4 0,-6 0,-18 -6,-35 -16,-49l-25 61z"/>
   <path class="fil0" d="M98 103l37 -86c-4,-3 -7,-5 -11,-6l-39 97c18,8 52,2 82,-7 1,-1 1,-3 1,-5 -22,6 -54,12 -70,7z"/>
   <path class="fil0" d="M61 110l42 -108c-4,-1 -8,-1 -12,-2l-45 115c25,17 72,14 117,0 1,-2 2,-4 2,-7 -26,11 -89,17 -104,2z"/>
   <path class="fil1" d="M777 89l18 0 0 -51c0,-3 -1,-5 -2,-8 0,-2 -2,-4 -3,-6 -1,-2 -3,-3 -6,-4 -2,-2 -4,-2 -7,-2 -4,0 -8,2 -11,4 -3,2 -5,6 -7,9l-17 42 -16 -40c-1,-2 -3,-4 -4,-6 -1,-2 -3,-3 -4,-5 -1,-1 -3,-2 -5,-3 -4,-1 -9,-1 -14,0 -2,1 -4,2 -5,4 -4,3 -6,8 -6,13l0 53 18 0 0 -51 17 37c0,2 2,4 3,6 2,2 3,4 4,5 2,1 4,3 6,4 2,1 4,1 6,1 2,0 5,0 7,-1 2,-1 3,-2 4,-3 2,-2 3,-4 4,-6 1,-2 2,-4 3,-7l17 -38 0 53 0 0z"/>
   <path class="fil1" d="M905 90l0 -19 -83 0 0 -8 83 0 0 -18 -83 0 0 -8 83 0 0 -19 -75 0c-4,0 -7,0 -10,1 -3,1 -6,3 -8,5 -2,2 -4,4 -6,7 -1,4 -2,6 -2,10l0 25c0,4 1,7 2,10 2,3 4,5 6,7 2,2 5,4 8,5 2,1 6,2 9,2l76 0z"/>
   <path class="fil1" d="M679 90l0 -19 -83 0 0 -8 83 0 0 -18 -83 0 0 -8 83 0 0 -19 -75 0c-4,0 -7,0 -11,1 -2,1 -5,3 -8,5 -2,2 -4,4 -5,7 -2,4 -2,6 -2,10l0 25c0,4 0,7 2,10 1,3 3,5 5,7 3,2 6,4 8,5 3,1 6,2 10,2l76 0z"/>
   <path class="fil1" d="M368 88c3,1 6,2 10,2l75 0 0 -19 -82 0 0 -8 83 0 0 -18 -83 0 0 -8 83 0 0 -19 -76 0c-4,0 -7,0 -10,1 -3,1 -6,3 -8,5 -3,2 -4,4 -5,7 -2,4 -2,6 -2,10l0 25c0,4 0,7 2,10 1,3 3,5 5,7 3,2 6,4 8,5z"/>
   <polygon class="fil1" points="343,18 324,18 324,72 302,72 302,18 282,18 282,72 261,72 261,18 242,18 242,90 343,90 "/>
   <path class="fil1" d="M482 37l67 0 0 8 -67 0 0 -8zm0 26l63 0c3,0 6,-1 8,-2 6,-2 11,-7 13,-12 2,-3 2,-6 2,-9 0,-3 0,-6 -2,-9 -1,-3 -3,-5 -5,-7 -3,-2 -6,-3 -8,-4 -4,-2 -6,-2 -10,-2l-80 0 0 72 19 0c0,0 0,-27 0,-27z"/>
   <path class="fil1" d="M1157 20c-3,0 -6,2 -9,4 -2,2 -4,5 -5,8 -1,3 -2,6 -2,9l0 26c0,3 1,7 2,10 1,2 3,5 5,7 3,2 6,3 9,5 2,1 6,2 9,2l75 0 0 -19 -82 0 0 -9 82 0 0 -18 -82 0 0 -8 82 0 0 -19 -75 0c-3,0 -6,0 -9,2z"/>
   <path class="fil1" d="M1113 72l-67 0 0 -9 67 0 0 9zm11 -20c-2,-3 -5,-5 -7,-5 -3,-2 -7,-2 -9,-2l-63 0 0 -27 -19 0 0 71 80 0c3,0 6,0 9,-1 3,-1 6,-3 8,-5 3,-2 4,-4 6,-6 2,-3 2,-7 2,-9 0,-4 0,-6 -2,-9 -1,-3 -3,-5 -5,-7z"/>
   <polygon class="fil1" points="915,37 957,37 957,89 975,89 975,37 1017,37 1017,18 915,18 "/>
   <path class="fil1" d="M1335 44l-65 0 0 -7 65 0 0 7zm0 27l-65 0 0 -8 65 0 0 8zm15 -17c2,-5 4,-9 4,-14 0,-3 -1,-7 -2,-10 -2,-2 -4,-4 -6,-6 -2,-2 -5,-4 -8,-4 -3,-1 -7,-2 -10,-2l-77 0 0 72 80 0c4,0 7,-1 9,-2 3,-1 6,-3 8,-5 2,-2 4,-4 5,-7 1,-3 2,-6 2,-9 0,-2 -1,-5 -2,-7 -1,-2 -2,-4 -3,-6z"/>
   <path class="fil1" d="M1447 72l-63 0 0 -35 63 0 0 35zm13 -47c-3,-2 -5,-4 -8,-5 -3,-1 -5,-2 -9,-2l-53 0c-3,0 -6,1 -9,2 -3,0 -6,2 -8,4 -2,2 -4,4 -6,6 -2,3 -2,6 -2,9l0 27c0,4 0,7 2,9 1,3 2,6 4,8 2,2 5,3 8,4 3,2 6,2 9,2l55 0c3,0 6,0 9,-2 3,-1 5,-2 8,-4 2,-2 4,-4 4,-7 2,-3 2,-6 2,-8l0 -27c0,-2 0,-6 -2,-8 -1,-3 -2,-6 -4,-8z"/>
   <path class="fil1" d="M464 141l-33 0 0 -17 33 0 0 17zm9 -15c0,-1 0,-3 -1,-4 -1,-1 -1,-3 -3,-3 -1,-1 -2,-2 -4,-2 -1,-1 -2,-1 -4,-1l-26 0c-2,0 -3,0 -5,1 -1,0 -3,1 -3,2 -2,0 -2,2 -3,3 -1,1 -1,3 -1,4l0 15 -2 0 0 9 56 0 0 -9 -4 0 0 -15 0 0z"/>
   <path class="fil1" d="M308 115c-1,1 -3,2 -4,2 -1,1 -2,2 -3,4 0,1 -1,3 0,4l0 13c0,2 0,4 1,5 1,1 1,3 3,3 1,2 2,2 4,3 1,1 3,1 4,1l38 0 0 -10 -41 0 0 -4 41 0 0 -9 -41 0 0 -4 41 0 0 -10 -38 0c-2,2 -4,2 -5,2z"/>
   <path class="fil1" d="M1230 142l-32 0 0 -18 32 0 0 18zm6 -23c-1,-2 -2,-2 -4,-3 -1,-1 -2,-1 -4,-1l-26 0c-1,0 -3,0 -5,1 -1,1 -2,1 -4,2 -1,1 -2,2 -3,3 0,2 -1,3 -1,4l0 14c0,1 0,3 1,5 0,1 1,2 2,3 2,1 3,2 4,3 1,0 3,0 5,0l27 0c2,0 3,0 4,0 2,-1 3,-2 4,-2 1,-1 2,-2 3,-4 0,-1 0,-2 0,-4l0 -13c0,-2 0,-3 0,-4 -1,-2 -2,-4 -3,-4z"/>
   <path class="fil1" d="M416 115l-12 0 -10 10 -1 1c0,1 0,1 -1,1 -1,1 -1,1 -1,2 0,0 -1,0 -1,1l0 -15 -10 0 0 14c0,0 -1,0 -1,-1 0,-1 -1,-1 -1,-1 0,-1 0,-1 0,-2 0,0 -1,0 -1,0l-9 -11 -13 0 16 18 -16 18 12 0 10 -11c1,-1 1,-1 1,-1 1,-1 1,-1 1,-1l1 -1 1 0 0 14 10 0 0 -15 0 1 1 0c0,0 1,1 1,2 0,0 0,1 1,2l10 10 11 0 -15 -17 16 -18z"/>
   <path class="fil1" d="M1174 129l-33 0 0 -5 33 0 0 5zm6 -11c-2,-1 -3,-2 -4,-2 -2,-1 -4,-1 -5,-1l-40 0 0 36 9 0 0 -13 31 0c2,0 4,0 5,-1 2,-1 3,-1 4,-3 2,-1 2,-2 3,-3 1,-2 1,-3 1,-5 0,-1 0,-3 -2,-5 0,-1 -1,-2 -2,-3z"/>
   <path class="fil1" d="M1342 142l-32 0 0 -18 32 0 0 18zm6 -23c-2,-2 -2,-2 -4,-3 -1,-1 -2,-1 -4,-1l-26 0c-2,0 -4,0 -5,1 -1,1 -3,1 -4,2 -1,1 -2,2 -3,3 0,2 -1,3 -1,4l0 14c0,1 0,3 1,5 0,1 1,2 2,3 2,1 2,2 4,3 1,0 2,0 4,0l28 0c2,0 3,0 4,0 2,-1 3,-2 4,-2 1,-1 2,-2 2,-4 1,-1 1,-2 1,-4l0 -13c0,-2 0,-3 -1,-4 0,-2 -2,-4 -2,-4z"/>
   <polygon class="fil1" points="1244,151 1253,151 1253,124 1286,124 1286,151 1295,151 1295,115 1244,115 "/>
   <path class="fil1" d="M1399 129l-34 0 0 -5 34 0 0 5zm6 -11c-2,-1 -3,-2 -4,-2 -2,-1 -4,-1 -5,-1l-40 0 0 36 9 0 0 -13 31 0c2,0 4,0 5,-1 2,-1 3,-1 4,-3 2,-1 2,-2 3,-3 1,-2 1,-3 1,-5 0,-1 0,-3 -2,-5 0,-1 -1,-2 -2,-3z"/>
   <path class="fil1" d="M293 118c-1,-1 -2,-1 -3,-2 -1,-1 -2,-1 -3,-1 -2,0 -4,1 -5,2 -2,2 -3,3 -4,5l-9 21 -8 -20c0,-2 0,-2 -1,-3 -1,-1 -1,-2 -2,-3 -1,0 -2,-1 -3,-1 -2,-1 -5,-1 -7,0 -3,1 -5,5 -5,8l0 27 9 0 0 -26 8 18c1,1 1,2 1,3 1,1 2,2 2,3 1,1 2,1 3,2 1,1 2,1 3,1 2,0 2,0 4,-1 0,-1 1,-1 2,-1 0,-1 1,-2 2,-3 1,-1 1,-2 2,-3l9 -19 0 26 7 0 0 -26c0,-1 0,-2 -1,-4 0,-1 0,-2 -1,-3z"/>
   <polygon class="fil1" points="1413,124 1434,124 1434,150 1443,150 1443,124 1464,124 1464,115 1413,115 "/>
   <path class="fil1" d="M691 129l-33 0 0 -5 33 0 0 5zm5 -11c-1,-1 -2,-2 -4,-2 -1,-1 -3,-1 -4,-1l-40 0 0 36 9 0 0 -13 31 0c2,0 4,0 5,-1 3,-1 5,-3 6,-6 1,-2 1,-3 1,-5 0,-1 -1,-3 -2,-5 0,-1 0,-2 -2,-3z"/>
   <path class="fil1" d="M747 142l-32 0 0 -18 32 0 0 18zm6 -23c-2,-2 -2,-2 -4,-3 -1,-1 -2,-1 -4,-1l-26 0c-2,0 -4,0 -5,1 -1,1 -3,1 -4,2 -1,1 -2,2 -3,3 0,2 -1,3 -1,4l0 14c0,1 0,3 1,5 0,1 1,2 2,3 2,1 2,2 4,3 1,0 2,0 4,0l28 0c2,0 3,0 4,0 2,-1 3,-2 4,-2 1,-1 2,-2 2,-4 1,-1 1,-2 1,-4l0 -13c0,-2 0,-3 -1,-4 -1,-2 -2,-4 -2,-4z"/>
   <path class="fil1" d="M984 116c-1,-1 -2,-1 -3,-1 -1,-1 -2,-1 -3,-1 -3,0 -6,1 -8,3l-24 25 0 -27 -9 0 0 26c0,1 0,3 1,4 0,1 0,2 2,3 0,1 2,2 2,2 2,1 3,1 4,1 2,0 3,0 5,-1 1,0 2,-1 3,-2l24 -24 0 27 9 0 0 -28c0,-1 0,-2 -1,-4 -1,-1 -2,-2 -2,-3z"/>
   <path class="fil1" d="M804 141l-32 0 0 -17 32 0 0 17zm9 -15c0,-1 0,-3 -1,-4 0,-1 -1,-3 -2,-3 -2,-1 -3,-2 -5,-2 -1,-1 -2,-1 -4,-1l-26 0c-1,0 -3,0 -5,1 -1,0 -2,1 -3,2 -2,0 -2,2 -3,3 -1,1 -1,3 -1,4l0 15 -2 0 0 9 56 0 0 -9 -4 0 0 -15z"/>
   <polygon class="fil1" points="923,115 932,115 932,150 923,150 "/>
   <path class="fil1" d="M524 128l-34 0 0 -13 -8 0 0 11c0,1 0,3 0,5 1,1 2,3 3,3 1,1 3,2 4,2 1,1 3,1 5,1l31 0 0 4 -41 0 0 9 39 0c1,0 3,0 4,0 1,-1 3,-2 3,-3 2,-1 2,-2 3,-3 1,-2 1,-3 1,-5l0 -24 -10 0 0 13z"/>
   <polygon class="fil1" points="864,128 831,128 831,115 821,115 821,150 831,150 831,137 864,137 864,150 873,150 873,115 864,115 "/>
   <polygon class="fil1" points="580,128 547,128 547,115 538,115 538,150 547,150 547,137 580,137 580,150 590,150 590,115 580,115 "/>
   <path class="fil1" d="M1123 118c-2,-1 -3,-2 -4,-2 -2,-1 -4,-1 -5,-1l-38 0 0 10 41 0 0 4 -41 0 0 9 41 0 0 4 -41 0 0 10 38 0c1,0 3,0 5,-1 1,-1 2,-1 4,-3 1,-1 2,-2 2,-3 1,-1 2,-3 2,-5l0 -14c0,-1 0,-3 -1,-5 -1,-1 -2,-2 -3,-3z"/>
   <path class="fil1" d="M909 142l-22 0 0 -5 22 0 0 5zm6 -11c-2,-1 -2,-2 -4,-2 -2,-1 -3,-1 -5,-1l-20 0 0 -13 -9 0 0 35 27 0c2,0 4,0 5,0 2,-1 3,-2 4,-2 2,-1 2,-2 3,-4 1,-1 1,-2 1,-4 0,-2 0,-4 0,-5 0,-1 -1,-2 -2,-4z"/>
   <path class="fil1" d="M614 132l4 -7 4 7 -8 0zm13 -12c-1,-1 -2,-2 -2,-3 -1,0 -2,-1 -3,-2 -2,0 -2,0 -4,0 -1,0 -2,0 -3,0 -1,1 -2,2 -3,2 0,1 -1,2 -2,3 0,1 -1,2 -2,3l-14 27 10 0 5 -9 18 0 5 9 10 0 -14 -27c0,0 -1,-2 -1,-3z"/>
   <path class="fil1" d="M1043 132l4 -7 4 7 -8 0zm12 -12c-1,-1 -1,-2 -2,-3 -1,0 -1,-1 -3,-2 -1,0 -2,0 -3,0 -2,0 -2,0 -4,0 0,1 -2,2 -2,2 -1,1 -2,2 -2,3 -1,1 -2,2 -2,3l-15 27 11 0 4 -9 18 0 5 9 10 0 -14 -27c0,0 0,-2 -1,-3z"/>
   <polygon class="fil1" points="948,100 976,100 976,108 948,108 "/>
  </g>
 </g>
</svg>
